<svg width="26" height="26" viewBox="0 0 26 26" fill="none" xmlns="http://www.w3.org/2000/svg">
<path d="M12.5124 8.32476C12.3898 8.32476 12.269 8.30362 12.1533 8.26189C11.3691 7.97843 10.8175 7.2585 10.7479 6.42786L10.6898 5.46676C10.6803 5.31348 10.7972 5.18163 10.9507 5.17217C11.1007 5.1616 11.2359 5.27954 11.2453 5.4331L11.3032 6.3878C11.3544 6.99618 11.7625 7.52917 12.3427 7.73864C12.3975 7.75839 12.4546 7.7684 12.5127 7.7684C12.6663 7.7684 12.7909 7.89303 12.7909 8.04658C12.7909 8.20013 12.6663 8.32476 12.5124 8.32476Z" fill="#425466"/>
<path d="M13.9998 6.68267C13.994 6.68267 13.9879 6.68267 13.9818 6.68211C13.8285 6.6721 13.7122 6.53996 13.7219 6.38669L13.7834 5.43198C13.7932 5.2787 13.9186 5.16103 14.0791 5.17216C14.2324 5.18218 14.3487 5.31431 14.3389 5.46759L14.2775 6.42229C14.2677 6.56973 14.1456 6.68267 13.9998 6.68267Z" fill="#425466"/>
<path d="M11.1143 8.6925C10.9811 8.6925 10.8631 8.59653 10.8403 8.4605C10.8147 8.30917 10.9168 8.16535 11.0684 8.14004C11.2356 8.11194 11.3569 7.98537 11.3569 7.83905L11.3619 7.63042C11.3658 7.47686 11.4974 7.35335 11.6468 7.35919C11.8003 7.36281 11.9219 7.49049 11.918 7.64405L11.913 7.84573C11.913 8.25771 11.5967 8.61517 11.1605 8.6886C11.1452 8.69111 11.1296 8.6925 11.1143 8.6925Z" fill="#425466"/>
<path d="M14.0611 5.72796C14.0316 5.72796 14.0015 5.72323 13.9723 5.71349C13.8533 5.67343 13.7762 5.55883 13.7834 5.43365C13.7907 5.30707 13.7907 5.22334 13.7879 5.16798C13.4385 5.21138 13.0337 5.21361 12.5703 5.03613C12.3594 4.94795 11.7416 4.68896 11.4726 4.85643C11.309 4.95852 11.2587 5.24448 11.2456 5.46619C11.2387 5.58609 11.1552 5.6879 11.0389 5.71878C10.9235 5.74966 10.8 5.70209 10.7346 5.60139C10.3593 5.02389 10.2406 4.45335 10.4 3.99519C10.5087 3.68279 10.7413 3.44189 11.0603 3.30809C11.6696 2.4335 12.8704 2.38871 13.8132 2.74339C13.9183 2.78289 13.9896 2.88164 13.9932 2.99375C13.9971 3.09695 13.9431 3.19292 13.8552 3.24411C14.2736 3.48056 14.539 3.77376 14.6463 4.11925C14.7813 4.55405 14.6625 5.05421 14.2922 5.605C14.2394 5.68345 14.1517 5.72796 14.0611 5.72796ZM13.9136 4.59188C13.9884 4.59188 14.0616 4.61358 14.1256 4.65558C14.1531 4.51927 14.1498 4.39521 14.115 4.28421C14.0279 4.00325 13.7306 3.76096 13.2318 3.56345C13.103 3.51255 13.0312 3.37429 13.0638 3.23966C13.0735 3.19904 13.0891 3.16149 13.1088 3.12588C12.4738 3.01767 11.8128 3.14452 11.4796 3.68251C11.4453 3.73759 11.3933 3.77904 11.3318 3.79963C11.1282 3.86834 10.9877 3.99908 10.9254 4.17767C10.879 4.31064 10.8756 4.4692 10.9124 4.64306C10.9836 4.53624 11.072 4.45029 11.178 4.38408C11.6317 4.10062 12.271 4.30758 12.777 4.51927C13.1764 4.67199 13.5244 4.64724 13.8407 4.59855C13.8649 4.59438 13.8894 4.59188 13.9136 4.59188Z" fill="#425466"/>
<path d="M12.7773 8.27857C12.6635 8.27857 12.5567 8.2082 12.5158 8.0947C12.4635 7.95005 12.5383 7.79065 12.683 7.73863C13.2633 7.52889 13.6713 6.99618 13.7228 6.3814C13.7353 6.22868 13.8677 6.11379 14.023 6.12743C14.1762 6.14022 14.29 6.27458 14.2769 6.42786C14.2077 7.2585 13.6563 7.97842 12.8719 8.26188C12.8404 8.27329 12.8087 8.27857 12.7773 8.27857Z" fill="#425466"/>
<path d="M12.5124 8.32475C12.3589 8.32475 12.2343 8.20013 12.2343 8.04657C12.2343 7.89302 12.3589 7.7684 12.5124 7.7684C12.5703 7.7684 12.6279 7.75838 12.6827 7.73863C12.8268 7.68689 12.9867 7.76144 13.0385 7.90609C13.0908 8.05075 13.0157 8.20986 12.871 8.26216C12.7558 8.30361 12.6351 8.32475 12.5124 8.32475Z" fill="#425466"/>
<path d="M14.379 14.5879H12.5152C12.3617 14.5879 12.237 14.4636 12.237 14.3097C12.237 14.1559 12.3617 14.0316 12.5152 14.0316H14.12L14.3798 10.4436C14.3901 10.2981 14.5114 10.1855 14.6572 10.1855H16.2609L19.7553 8.12029C19.8702 8.05213 19.9125 7.90581 19.8519 7.78675C19.7912 7.66908 19.6491 7.61762 19.5272 7.66936L16.3552 9.01741C16.3076 9.03744 16.2553 9.04384 16.2052 9.03633L13.893 8.68916C13.4521 8.61489 13.1355 8.25771 13.1355 7.83877L13.1308 7.64349C13.1272 7.48993 13.249 7.36253 13.4029 7.35919C13.4051 7.35919 13.4073 7.35919 13.409 7.35919C13.5598 7.35919 13.6836 7.47964 13.6872 7.63097L13.6919 7.83265C13.6919 7.98509 13.8135 8.11166 13.9804 8.14004L16.21 8.47468L19.31 7.15751C19.6978 6.99227 20.154 7.15723 20.347 7.53305C20.542 7.9136 20.4066 8.38177 20.0388 8.59931L16.479 10.7032C16.4361 10.7285 16.3872 10.7418 16.3374 10.7418H14.9167L14.6569 14.3298C14.646 14.4753 14.525 14.5879 14.379 14.5879Z" fill="#425466"/>
<path d="M12.5124 14.5879H10.6486C10.5029 14.5879 10.3819 14.4753 10.371 14.3298L10.1117 10.7418H8.69109C8.6413 10.7418 8.59262 10.7285 8.5495 10.7032L4.99772 8.60404C4.62274 8.38261 4.49033 7.90832 4.69646 7.52443C4.8998 7.14472 5.34266 6.98922 5.731 7.1539L8.83908 8.47469L11.0734 8.13921C11.1819 8.12251 11.2896 8.17175 11.3485 8.26355C11.7577 8.89919 12.1508 9.22215 12.5174 9.22326C12.518 9.22326 12.5188 9.22326 12.5194 9.22326C12.8871 9.22326 13.2846 8.89974 13.7014 8.26188C13.7854 8.13336 13.9578 8.09748 14.0864 8.18093C14.2149 8.26494 14.2513 8.43741 14.167 8.56593C13.634 9.38238 13.0949 9.77934 12.5197 9.77934C12.5183 9.77934 12.5169 9.77934 12.5155 9.77934C11.9772 9.77767 11.474 9.42912 10.9811 8.71531L8.84381 9.03605C8.7929 9.04384 8.74088 9.03716 8.69359 9.01713L5.51291 7.66575C5.3919 7.61428 5.25309 7.66296 5.19078 7.77897C5.12179 7.90721 5.16324 8.05575 5.28063 8.12502L8.76676 10.1855H10.3702C10.5159 10.1855 10.6369 10.2981 10.6478 10.4436L10.9073 14.0316H12.5124C12.666 14.0316 12.7906 14.1559 12.7906 14.3097C12.7906 14.4636 12.6663 14.5879 12.5124 14.5879Z" fill="#425466"/>
<path d="M11.6462 22.5015C11.0406 22.5015 10.5388 22.0278 10.5037 21.423L10.3705 14.315C10.3691 14.2402 10.3977 14.1684 10.45 14.115C10.5023 14.0616 10.5738 14.0316 10.6486 14.0316H12.5124C12.666 14.0316 12.7906 14.1559 12.7906 14.3097V21.3568C12.7906 21.988 12.2774 22.5015 11.6462 22.5015ZM10.9321 14.5879L11.0595 21.4016C11.077 21.7015 11.3349 21.9449 11.6462 21.9449C11.9706 21.9449 12.2343 21.6812 12.2343 21.3568V14.5879H10.9321Z" fill="#425466"/>
<path d="M13.3815 22.5015C12.7503 22.5015 12.237 21.988 12.237 21.3571V14.3097C12.237 14.1559 12.3617 14.0316 12.5152 14.0316H14.379C14.4538 14.0316 14.525 14.0616 14.5776 14.115C14.6299 14.1682 14.6586 14.2402 14.6572 14.315L14.5245 21.4122C14.4892 22.0278 13.987 22.5015 13.3815 22.5015ZM12.7937 14.5879V21.3568C12.7937 21.6812 13.0574 21.9449 13.3817 21.9449C13.693 21.9449 13.9509 21.7015 13.969 21.3908L14.0958 14.5879H12.7937Z" fill="#425466"/>
<path d="M14.0363 6.1113H10.9908C10.8372 6.1113 10.7126 5.98667 10.7126 5.83312C10.7126 5.67956 10.8372 5.55494 10.9908 5.55494H14.0363C14.1901 5.55494 14.3145 5.67956 14.3145 5.83312C14.3145 5.98667 14.1901 6.1113 14.0363 6.1113Z" fill="#425466"/>
<path d="M9.59715 10.7418C9.44359 10.7418 9.31897 10.6172 9.31897 10.4637V8.64215C9.31897 8.4886 9.44359 8.36398 9.59715 8.36398C9.7507 8.36398 9.87533 8.4886 9.87533 8.64215V10.4637C9.87533 10.6172 9.7507 10.7418 9.59715 10.7418Z" fill="#425466"/>
<path d="M15.4389 10.7418C15.2851 10.7418 15.1607 10.6172 15.1607 10.4637V8.64021C15.1607 8.48665 15.2851 8.36203 15.4389 8.36203C15.5927 8.36203 15.7171 8.48665 15.7171 8.64021V10.4639C15.7171 10.6172 15.5927 10.7418 15.4389 10.7418Z" fill="#425466"/>
<path d="M20.8789 22.9163C20.0733 22.9163 19.4177 22.2609 19.4177 21.455C19.4177 20.6491 20.0731 19.9938 20.8789 19.9938C21.6848 19.9938 22.3402 20.6491 22.3402 21.455C22.3402 22.2609 21.6845 22.9163 20.8789 22.9163ZM20.8789 20.5501C20.3799 20.5501 19.974 20.956 19.974 21.455C19.974 21.9541 20.3799 22.3599 20.8789 22.3599C21.378 22.3599 21.7838 21.9541 21.7838 21.455C21.7838 20.956 21.378 20.5501 20.8789 20.5501Z" fill="#425466"/>
<path d="M19.6958 14.5879C18.8902 14.5879 18.2346 13.9325 18.2346 13.1267C18.2346 12.3211 18.8899 11.6657 19.6958 11.6657C20.5017 11.6657 21.1571 12.3211 21.1571 13.1267C21.1571 13.9325 20.5014 14.5879 19.6958 14.5879ZM19.6958 12.222C19.1968 12.222 18.7909 12.6279 18.7909 13.1267C18.7909 13.6257 19.1968 14.0316 19.6958 14.0316C20.1949 14.0316 20.6007 13.6257 20.6007 13.1267C20.6007 12.6279 20.1949 12.222 19.6958 12.222Z" fill="#425466"/>
<path d="M1.90191 7.86575C1.09631 7.86575 0.440643 7.21036 0.440643 6.40448C0.440643 5.5986 1.09603 4.94321 1.90191 4.94321C2.70779 4.94321 3.36318 5.5986 3.36318 6.40448C3.36318 7.21036 2.70779 7.86575 1.90191 7.86575ZM1.90191 5.49985C1.40314 5.49985 0.996999 5.90571 0.996999 6.40476C0.996999 6.90381 1.40286 7.30967 1.90191 7.30967C2.40096 7.30967 2.80682 6.90381 2.80682 6.40476C2.80682 5.90571 2.40096 5.49985 1.90191 5.49985Z" fill="#425466"/>
<path d="M17.8457 3.09112C17.0401 3.09112 16.3844 2.43573 16.3844 1.62985C16.3844 0.823966 17.0398 0.168579 17.8457 0.168579C18.6515 0.168579 19.3069 0.823966 19.3069 1.62985C19.3069 2.43573 18.6515 3.09112 17.8457 3.09112ZM17.8457 0.724935C17.3466 0.724935 16.9408 1.1308 16.9408 1.62985C16.9408 2.1289 17.3466 2.53476 17.8457 2.53476C18.3447 2.53476 18.7506 2.1289 18.7506 1.62985C18.7506 1.1308 18.3447 0.724935 17.8457 0.724935Z" fill="#425466"/>
<path d="M2.21875 20.5501C1.41314 20.5501 0.757477 19.8947 0.757477 19.0888C0.757477 18.283 1.41286 17.6276 2.21875 17.6276C3.02463 17.6276 3.68001 18.283 3.68001 19.0888C3.68001 19.8947 3.02435 20.5501 2.21875 20.5501ZM2.21875 18.1839C1.71997 18.1839 1.31383 18.5898 1.31383 19.0888C1.31383 19.5879 1.71969 19.9938 2.21875 19.9938C2.7178 19.9938 3.12366 19.5879 3.12366 19.0888C3.12366 18.5898 2.71752 18.1839 2.21875 18.1839Z" fill="#425466"/>
<path d="M1.61009 18.3539C1.50884 18.3539 1.4112 18.2985 1.36196 18.2023C0.458159 16.4317 0 14.5192 0 12.518C0 10.7146 0.37554 8.97402 1.11577 7.34473C1.17947 7.20481 1.34443 7.14361 1.48408 7.20648C1.624 7.27018 1.68576 7.43514 1.62233 7.57478C0.914927 9.13147 0.556356 10.7944 0.556356 12.518C0.556356 14.4308 0.994208 16.2578 1.85767 17.9492C1.92749 18.086 1.87325 18.2538 1.73639 18.3236C1.69577 18.3442 1.65265 18.3539 1.61009 18.3539Z" fill="#425466"/>
<path d="M12.518 25.036C8.64772 25.036 5.05617 23.2877 2.66439 20.2394C2.56953 20.1184 2.59068 19.9437 2.7114 19.8488C2.83213 19.754 3.00711 19.7748 3.10197 19.8961C5.38775 22.8089 8.81991 24.4797 12.518 24.4797C15.1821 24.4797 17.7035 23.6229 19.809 22.0017C19.9309 21.9076 20.1059 21.9304 20.1991 22.0523C20.2928 22.1741 20.2703 22.3485 20.1484 22.4423C17.9447 24.1389 15.3062 25.036 12.518 25.036Z" fill="#425466"/>
<path d="M21.7037 20.8856C21.6383 20.8856 21.5727 20.8628 21.5198 20.8161C21.4047 20.7145 21.3935 20.5387 21.4951 20.4235C23.4195 18.2398 24.4796 15.4325 24.4796 12.518C24.4796 8.33644 22.3521 4.52763 18.7884 2.32974C18.6577 2.24907 18.6173 2.07771 18.6977 1.94697C18.7784 1.81623 18.9492 1.77506 19.0808 1.85628C22.8097 4.15626 25.036 8.14199 25.036 12.518C25.036 15.5679 23.9266 18.5061 21.9123 20.7913C21.8573 20.8539 21.7805 20.8856 21.7037 20.8856Z" fill="#425466"/>
<path d="M2.54894 5.69263C2.49303 5.69263 2.43656 5.67566 2.3876 5.64089C2.2627 5.5516 2.23349 5.37801 2.32278 5.25283C4.67088 1.96366 8.4822 0 12.518 0C14.0296 0 15.5073 0.266494 16.9102 0.792251C17.0542 0.846217 17.1269 1.00673 17.0732 1.15054C17.0192 1.29464 16.8579 1.36669 16.7151 1.31328C15.3749 0.811167 13.9626 0.556356 12.518 0.556356C8.66134 0.556356 5.01944 2.43294 2.77566 5.57608C2.72113 5.6523 2.63573 5.69263 2.54894 5.69263Z" fill="#425466"/>
<path d="M1.90218 18.2265C1.7503 18.2265 1.62623 18.1044 1.624 17.9522C1.5973 15.9285 3.44023 13.1267 6.55359 10.4567C6.67015 10.3566 6.84568 10.3699 6.94583 10.4868C7.04569 10.6033 7.03234 10.7788 6.91578 10.879C3.97071 13.4043 2.15616 16.1115 2.18064 17.9444C2.18259 18.0983 2.05963 18.2243 1.90608 18.2265C1.90469 18.2265 1.90357 18.2265 1.90218 18.2265Z" fill="#425466"/>
<path d="M5.23309 20.6533C4.31761 20.6533 3.5337 20.4939 2.92867 20.1618C2.79403 20.0878 2.74451 19.9187 2.81851 19.7843C2.8925 19.6494 3.06108 19.5993 3.19627 19.6741C5.35716 20.8603 10.3479 19.498 15.0628 16.4364C16.3599 15.5938 17.5597 14.6764 18.6279 13.7097C18.7417 13.6065 18.9175 13.6154 19.0207 13.7292C19.1239 13.843 19.115 14.0191 19.0012 14.122C17.9108 15.1087 16.6879 16.0442 15.366 16.9029C11.6771 19.2983 7.89943 20.6533 5.23309 20.6533Z" fill="#425466"/>
<path d="M20.4825 12.5233C20.4166 12.5233 20.3501 12.4999 20.2972 12.4526C20.1826 12.3503 20.1729 12.1745 20.275 12.0598C22.5257 9.53956 23.3761 7.27547 22.5499 6.00308C21.7062 4.70399 19.1211 4.59244 15.8044 5.71238C15.6578 5.7619 15.5006 5.68345 15.4517 5.53797C15.4024 5.39248 15.4806 5.23448 15.6261 5.18552C19.2499 3.96153 22.0122 4.15403 23.0164 5.70042C23.9875 7.19591 23.118 9.71203 20.69 12.4307C20.6349 12.4919 20.5587 12.5233 20.4825 12.5233Z" fill="#425466"/>
</svg>
